<?xml version="1.0" standalone="no"?>
<!DOCTYPE svg PUBLIC "-//W3C//DTD SVG 20010904//EN"
 "http://www.w3.org/TR/2001/REC-SVG-20010904/DTD/svg10.dtd">
<svg version="1.0" xmlns="http://www.w3.org/2000/svg"
 width="1080.000000pt" height="1080.000000pt" viewBox="0 0 1080.000000 1080.000000"
 preserveAspectRatio="xMidYMid meet">

<g transform="translate(0.000000,1080.000000) scale(0.100000,-0.100000)"
fill="#000000" stroke="none">
<path d="M0 7162 l0 -3637 65 -13 c84 -16 95 -15 118 5 17 16 42 18 200 19
256 1 433 -38 500 -109 37 -40 34 -60 -10 -82 -21 -10 -45 -21 -54 -26 -9 -4
-22 -3 -30 2 -8 5 -45 9 -82 9 -38 0 -111 5 -162 11 -81 10 -101 9 -147 -6
-29 -10 -57 -21 -63 -26 -5 -5 -28 -9 -52 -9 -24 0 -43 -4 -43 -9 0 -5 -27 -7
-60 -5 -33 2 -87 6 -120 8 l-60 4 0 -209 0 -209 48 0 c26 0 54 -6 61 -12 11
-10 14 -10 18 0 7 17 30 15 37 -4 4 -9 5 -19 3 -21 -2 -2 -41 -6 -86 -10 l-81
-6 0 -1413 0 -1414 5400 0 5400 0 0 5400 0 5400 -5400 0 -5400 0 0 -3638z
m4415 773 c62 -16 136 -46 195 -78 25 -13 69 -37 98 -53 145 -78 341 -318 402
-489 30 -87 40 -131 40 -188 0 -57 -3 -68 -27 -94 -16 -16 -44 -37 -63 -48
-19 -10 -44 -23 -55 -28 -11 -6 -62 -13 -112 -15 -90 -4 -95 -3 -165 31 -126
60 -248 174 -314 290 -24 44 -44 83 -44 87 0 4 -11 33 -25 64 -14 31 -25 69
-25 84 0 15 -7 59 -15 97 -8 39 -15 113 -15 165 0 133 23 209 59 195 9 -4 39
-12 66 -20z m2326 -197 c0 -7 3 -22 5 -33 14 -55 15 -121 5 -158 -12 -40 -18
-61 -56 -189 -18 -61 -80 -191 -105 -222 -51 -61 -156 -156 -200 -180 -90 -49
-209 -68 -281 -45 -114 37 -199 104 -199 157 0 56 71 208 129 278 14 17 46 59
70 93 70 98 268 230 393 262 193 49 238 56 239 37z"/>
</g>
</svg>
